<svg width="187" height="201" viewBox="0 0 187 201" xmlns="http://www.w3.org/2000/svg" xmlns:xlink="http://www.w3.org/1999/xlink">
  <defs>
    <path d="M3.572 20.595c-4.858 13.383.535 27.963 1.975 31.11-7.354 11.475-6.092 25.84-3.046 37.662s10.137 23.746 19.506 30.262c14.043 9.767 35.542 8.926 35.542 8.926v2.123s-3.848 1.4-9.487 7.234c-4.286 4.434-7.24 4.563-10.116 3.321-2.414-1.042-2.037-4.44-2.43-10.276-.286-4.234-5.355-2.402-7.092 1.95-3.35 8.388-.162 16.054 6.47 19.015 10.746 4.797 22.655-7.428 22.655-7.428s1.412 8.811-1.1 11.553c-2.487 2.715-6.065 2.19-9.592-1.136-1.966-1.854-4.783-.292-4.407 2.377.715 5.091 4.445 9.938 10.53 9.938 7.479 0 15.306-4.102 14.937-14.676-.607-17.366 1.578-18.477 1.578-18.477s.833 6.869 4.005 19.226c2.196 8.55-4.629 12.59-9.599 14.315-4.2 1.457-6.557 5.28-1.307 6.47 8.236 1.869 15.048-.43 19.871-8.653 4.093-6.975 1.9-11.284-.587-23.327-1.035-5.015-1.14-10.242-1.14-10.242l1.727-.14s-.282 3.285 2.595 14.221c2.33 8.858 3.573 16.398-.71 24.876-1.494 2.958-9.24 8.487-4.786 9.62 4.693 1.194 11.293-.345 15.305-7.142 5.263-8.916 3.516-16.295.683-28.803-1.85-8.17-1.807-12.665-1.807-12.665s4.39 1.962 4.899 7.217c.843 8.687 2.914 15.865 8.927 19.105 8.652 4.662 14.926 1.901 17.66-2.104 1.894-2.777 2.134-8.775-.272-10.104-1.824-1.008-3.691 4.642-6.875 5.12-4.22.631-8.746-1.283-8.746-13.15 0-11.174-5.666-17.056-5.666-17.056s30.515-7.755 36.772-29.505c3.474-12.074 3.105-26.533-1.355-41.528-4.29-14.424-14.773-21.8-14.773-21.8s.577-14.52-8.636-27.186c-12.26-4.049-29.032 12.058-31.33 13.944-24.817-1.18-45.636 8.827-45.636 8.827S15.508 12.394 3.572 20.595z" id="a"/>
  </defs>
  <g fill="none" fill-rule="evenodd">
    <path d="M186.2 200.45c-1.834-1.701-1.25-1.62-2.839-5.118-12.507-27.53-28.655-38.628-51.646-29.953-17.905 6.756-30.617-5.696-39.215-32.478-3.004-9.359-5.233-19.75-6.794-30.376a229.593 229.593 0 0 1-1.305-10.538 164.115 164.115 0 0 1-.271-2.97 72.8 72.8 0 0 1-.078-1.029l-.195-2.993-5.988.39.196 2.994c.038.533.059.809.085 1.124.072.893.165 1.924.28 3.08.328 3.292.77 6.93 1.34 10.814 1.605 10.927 3.9 21.627 7.017 31.338 4.2 13.084 9.585 23.386 16.416 30.077 8.422 8.25 18.76 10.66 30.63 6.18 19.73-7.444 33.826 2.773 47.536 25.152 2.205 3.599 3.798 4.732 4.831 4.305z" fill="#3D464F" fill-rule="nonzero"/>
    <g transform="rotate(32 60.281 84.281)">
      <mask id="b" fill="#fff">
        <use xlink:href="#a"/>
      </mask>
      <use fill="#78AF9F" xlink:href="#a"/>
      <path d="M37.318 127.79s-4.153-.871-5.242 1.163c5.155-.845-1.4 12.464 8.517 12.792.436-5.279-3.275-13.954-3.275-13.954zm19.999 13.588c-.308 3.58 0 5.762 0 5.762L52 151.474l-12.72 3.152-9.022-1.414-2.058-5.574s5.33 5.778 14.51 3.255c9.18-2.524 11.945-5.935 14.607-9.515zm12.264-7.265c-.43 5.497 0 11.248 0 11.248l.7 4.322.27 6.832-4.876 8.352-10.132 4.062-16.425-2.214 2.758-7.791s5.357 8.645 13.667 5.497c8.31-3.148 10.179-7.53 9.41-16.224-.769-8.694 1.096-12.841 4.628-14.084zm10.944-2.11c.64.342 1.426.901 1.426.901l3.403 19.748.566 12.079-6.559 7.174-11.153 6.437-13.029-3.858 3.342-5.14s.585 5.888 11.688 3.14c11.103-2.747 13.77-9.828 13-18.522-.768-8.694-4.09-14.295-2.684-21.959zm13.05.074c1.238 2.367 2.784 5.973 2.784 5.973l6.644 36.23-21.14 12.397-11.361-7.257 8.011-6.018s-3.536 9.76 6.504 4.667c10.041-5.093 12.11-10.783 11.342-19.477-.768-8.694-2.783-17.356-2.783-26.515zm5.557 15.385l7.907 29.832 31.766-19.835-10.987-20.403-7.02 9.1s4.798-2.085 4.275 4.588c-.524 6.672-7.53 8.452-13.67 7.7-7.395-.906-12.271-10.982-12.271-10.982zM115.884.965l25.496-2.92 11.426 115.86S124.869 126.33 113.4 149.38c-10.533-1.693 2.506-28.551-23.165-24.184-10.154 1.727-16.47 2.424-22.845 3.205-7.043.862-8.907 3.115-10.731 4.696-1.527-1.581-3.852-.768-3.852-.768s-29.09-6.521-37.695-12.816c11.037 0 6.77.961 18.394 0 6.702 3.711 21.6 6.832 49.471 1.167 27.87-5.665 44.478-11.34 47.869-27.14 5.238-24.409-10.973-35.48-10.973-35.48s-2.278-17.5-17.006-24.454c19.256-8.88 13.017-32.64 13.017-32.64zM.211 20.997l24.09-15.738 14.423 18.657s4.783 10.01-6.555 18.268C31.678 15.24.211 20.997.211 20.997zm85.018-10.06s-6.903 13.415 12.984 21.369C78.995 27.037 83.455 17.95 78.896 16.428c-5.517-1.843-11.237-3.366-11.898-5.491 9.12-3.705 18.23 0 18.23 0z" fill="#000" opacity=".224" mask="url(#b)"/>
      <g mask="url(#b)" fill="#000" fill-rule="nonzero" opacity=".327">
        <path d="M68.857 143.15c.277.367.8.878 1.578 1.381 1.698 1.097 3.826 1.598 6.362 1.178 1.924-.317 3.5-.947 4.757-1.802 1.157-.786 1.838-1.591 2.146-2.169l-1.336-.712a3.118 3.118 0 0 1-.337.46c-.333.394-.77.793-1.323 1.168-1.075.731-2.446 1.279-4.153 1.56-2.151.356-3.902-.056-5.295-.956a5.892 5.892 0 0 1-.924-.731 3.13 3.13 0 0 1-.27-.293l-1.205.916z"/>
        <path d="M56.703 146.665c.187.212.55.46 1.127.683 1.214.466 2.989.655 5.44.44 2.115-.186 3.825-.88 5.156-1.926.962-.756 1.542-1.525 1.813-2.072l-1.356-.673a3.288 3.288 0 0 1-.294.447 6.058 6.058 0 0 1-1.098 1.107c-1.103.867-2.535 1.449-4.354 1.608-2.236.196-3.784.031-4.765-.345-.353-.136-.512-.245-.536-.272l-1.133 1.003zM82.328 141.597c.277.366.8.877 1.578 1.38 1.698 1.097 3.826 1.598 6.362 1.179 1.924-.318 3.5-.948 4.757-1.802 1.157-.786 1.838-1.592 2.146-2.17l-1.336-.712a3.118 3.118 0 0 1-.337.46c-.333.394-.77.793-1.323 1.169-1.075.73-2.446 1.278-4.153 1.56-2.151.356-3.902-.057-5.295-.956a5.892 5.892 0 0 1-.924-.732 3.13 3.13 0 0 1-.27-.292l-1.205.916zM96.835 142.373c.278.367.8.878 1.579 1.381 1.697 1.097 3.825 1.598 6.362 1.179 1.923-.318 3.5-.948 4.757-1.802 1.156-.786 1.838-1.592 2.145-2.17l-1.335-.712a3.118 3.118 0 0 1-.338.46c-.333.394-.77.793-1.322 1.168-1.076.731-2.447 1.279-4.154 1.561-2.15.356-3.902-.057-5.295-.956a5.892 5.892 0 0 1-.923-.732 3.13 3.13 0 0 1-.271-.292l-1.205.915z"/>
        <path d="M97.094 145.48c.278.367.8.879 1.579 1.381 1.697 1.097 3.825 1.598 6.362 1.179 1.923-.318 3.5-.948 4.757-1.802 1.156-.786 1.838-1.592 2.145-2.17l-1.335-.712a3.118 3.118 0 0 1-.338.46c-.332.394-.77.793-1.322 1.169-1.076.73-2.447 1.278-4.154 1.56-2.15.356-3.902-.056-5.295-.956a5.892 5.892 0 0 1-.923-.732 3.13 3.13 0 0 1-.27-.292l-1.206.916zM126.248 156.89c.04-.096.088-.246.134-.444.358-1.537-.001-3.288-1.579-4.897a8.315 8.315 0 0 0-.885-.78c-2.118-1.622-4.09-1.86-5.698-1.247-.306.117-.53.24-.667.336l.87 1.24c.04-.028.154-.091.336-.16 1.13-.432 2.55-.26 4.24 1.034.27.208.511.42.724.637 1.183 1.208 1.433 2.427 1.186 3.494-.027.115-.05.187-.06.21l1.4.577zM81.8 171.461c-.09.142-.207.375-.319.69-.65 1.826-.32 3.964 1.623 6.08 2.03 2.212 4.147 2.748 5.945 2.28.218-.056.381-.116.485-.164l-.642-1.372c-.023.01-.1.039-.223.07-1.278.333-2.815-.056-4.451-1.839-1.543-1.68-1.781-3.227-1.311-4.547.072-.202.138-.335.17-.386l-1.277-.812z"/>
        <path d="M79.716 173.272a3.404 3.404 0 0 0-.305.658c-.617 1.736-.305 3.768 1.538 5.774 1.926 2.098 3.936 2.606 5.646 2.162.208-.054.364-.111.464-.158l-.642-1.372a1.483 1.483 0 0 1-.202.064c-1.19.31-2.62-.053-4.152-1.72-1.442-1.572-1.664-3.012-1.226-4.242.066-.187.128-.309.157-.355l-1.278-.811zM66.75 164.754c-.364.191-.864.573-1.354 1.182-1.138 1.412-1.608 3.353-1.058 5.82.402 1.804 1.149 3.15 2.148 4.086.979.916 1.977 1.285 2.693 1.347l.13-1.51a2.246 2.246 0 0 1-.504-.135 3.819 3.819 0 0 1-1.285-.808c-.772-.723-1.368-1.797-1.705-3.31-.449-2.013-.093-3.483.759-4.54.204-.253.422-.461.637-.625.122-.093.208-.147.241-.164l-.701-1.343z"/>
        <path d="M65.58 164.972c-.565.086-1.345.394-2.117 1.074-1.03.907-1.72 2.253-1.924 4.078-.235 2.093.229 3.699 1.166 4.841.477.583.968.927 1.332 1.089l.613-1.385c-.163-.072-.463-.283-.776-.664-.675-.824-1.021-2.022-.831-3.712.163-1.454.675-2.454 1.42-3.11.31-.273.64-.467.967-.597.187-.073.322-.108.376-.116l-.226-1.498zM52.71 156.25a3.41 3.41 0 0 0-.52-.165c-1.82-.445-3.89-.008-5.794 1.93-.236.24-.467.502-.691.785-1.91 2.41-2.213 4.665-1.533 6.51.123.335.252.58.352.727l1.253-.85a2.144 2.144 0 0 1-.186-.401c-.501-1.362-.273-3.06 1.3-5.045.19-.241.386-.462.583-.664 1.5-1.526 3.022-1.847 4.356-1.52.149.036.245.069.28.084l.6-1.39z"/>
        <path d="M51.563 155.748a3.683 3.683 0 0 0-.835-.543c-1.592-.784-3.553-.737-5.708.641-.53.34-.991.703-1.385 1.089-1.476 1.446-1.891 3.009-1.696 4.337.016.109.034.192.05.249l1.46-.394-.013-.076a2.834 2.834 0 0 1 .084-1.129c.172-.645.543-1.287 1.174-1.905.318-.311.697-.61 1.141-.895 1.692-1.082 3.092-1.115 4.225-.558.252.125.417.242.483.302l1.02-1.118zM37.02 135.548c-.131-.308-.415-.708-.902-1.09-1.083-.852-2.687-1.191-4.854-.786-1.543.288-2.758.806-3.678 1.494-.938.701-1.42 1.435-1.59 1.98l1.445.452c.01-.036.062-.147.17-.311.197-.302.485-.612.88-.908.73-.546 1.73-.971 3.051-1.218 1.755-.328 2.916-.083 3.642.487.269.212.406.406.444.494l1.392-.594z"/>
        <path d="M37.291 133.384c-.162-.372-.502-.878-1.069-1.375-1.175-1.03-2.821-1.52-4.948-1.2-1.724.261-3.01.904-3.902 1.821-.747.77-1.084 1.557-1.174 2.13l1.495.234a1.8 1.8 0 0 1 .12-.356 3.15 3.15 0 0 1 .644-.952c.656-.675 1.64-1.166 3.043-1.378 1.684-.255 2.884.103 3.726.84.224.198.405.408.544.615.078.116.122.198.135.227l1.386-.606zM129.433 155.097c.022-.073.048-.186.073-.336.228-1.396-.086-3.003-1.35-4.509-.536-.637-1.222-1.22-2.07-1.738-2.479-1.516-4.657-1.609-6.382-.815-.406.186-.695.38-.864.528l.994 1.142c.066-.058.236-.172.501-.294 1.276-.587 2.921-.516 4.963.732.71.434 1.271.91 1.7 1.42.95 1.131 1.177 2.296 1.014 3.289-.014.086-.026.139-.03.154l1.451.427zM68.758 146.593c.336.285.94.688 1.791 1.084 1.952.909 4.23 1.3 6.766.88 1.854-.306 3.36-.858 4.549-1.59 1.184-.73 1.857-1.488 2.145-2.04l-1.341-.701a2.417 2.417 0 0 1-.3.393 5.78 5.78 0 0 1-1.298 1.058c-1.018.628-2.338 1.111-4.001 1.386-2.216.366-4.191.028-5.881-.76a8.358 8.358 0 0 1-1.103-.614c-.18-.12-.298-.209-.348-.251l-.98 1.155z"/>
        <path d="M55.287 148.923c.336.285.94.688 1.791 1.084 1.952.91 4.23 1.3 6.766.881 1.854-.306 3.36-.858 4.549-1.59 1.184-.73 1.857-1.488 2.145-2.041l-1.341-.7a2.417 2.417 0 0 1-.3.392 5.78 5.78 0 0 1-1.298 1.058c-1.018.628-2.338 1.112-4.001 1.387-2.216.366-4.191.027-5.881-.76a8.358 8.358 0 0 1-1.103-.614c-.18-.12-.298-.21-.348-.252l-.98 1.155zM82.488 145.039c.336.285.94.688 1.792 1.084 1.951.91 4.23 1.3 6.766.881 1.854-.306 3.359-.858 4.548-1.59 1.184-.73 1.857-1.488 2.145-2.041l-1.341-.7a2.417 2.417 0 0 1-.3.392 5.78 5.78 0 0 1-1.297 1.058c-1.02.628-2.339 1.112-4.002 1.387-2.216.366-4.191.027-5.881-.76a8.358 8.358 0 0 1-1.103-.614c-.18-.12-.298-.21-.348-.252l-.98 1.155z"/>
      </g>
      <g mask="url(#b)" fill="#000" opacity=".332">
        <g transform="translate(31.778 132.531)">
          <ellipse cx="10.19" cy="11.569" rx="1.813" ry="1.165"/>
          <ellipse transform="rotate(38 5.008 10.275)" cx="5.008" cy="10.275" rx="1.813" ry="1.165"/>
          <ellipse transform="rotate(72 1.974 6.224)" cx="1.974" cy="6.224" rx="1.813" ry="1.165"/>
          <ellipse transform="rotate(-31 15.112 9.239)" cx="15.112" cy="9.239" rx="1.813" ry="1.165"/>
          <ellipse transform="rotate(-43 18.998 5.873)" cx="18.998" cy="5.873" rx="1.813" ry="1.165"/>
          <ellipse transform="rotate(-43 22.365 2.248)" cx="22.365" cy="2.248" rx="1.813" ry="1.165"/>
        </g>
      </g>
    </g>
    <g transform="rotate(32 -22.198 88.937)">
      <ellipse fill="#FFF" transform="rotate(-11 85.872 36.572)" cx="85.872" cy="36.572" rx="10.263" ry="14.603"/>
      <ellipse fill="#000" transform="rotate(-11 85.872 36.572)" cx="85.872" cy="36.572" rx="6.626" ry="9.434"/>
      <ellipse fill="#FFF" transform="rotate(-11 31.829 44.068)" cx="31.829" cy="44.068" rx="10.263" ry="14.603"/>
      <ellipse fill="#000" transform="rotate(-11 31.829 43.81)" cx="31.829" cy="43.809" rx="6.626" ry="9.434"/>
      <ellipse fill="#000" cx="59.5" cy="52.726" rx="2.598" ry="2.585"/>
      <path d="M54.88 60.365a6.628 6.628 0 0 0 5.53 2.958 6.625 6.625 0 0 0 6.286-4.505.774.774 0 0 0-.493-.981.78.78 0 0 0-.986.49 5.067 5.067 0 0 1-4.808 3.445 5.067 5.067 0 0 1-4.229-2.263.782.782 0 0 0-1.08-.219.773.773 0 0 0-.22 1.075z" fill="#000" fill-rule="nonzero"/>
      <path d="M65.222 74.453C94.9 69.22 118.606 62.99 113.234 32.525c-3.16-17.923-29.78-28.211-59.456-22.978C24.1 14.78 2.605 33.55 5.766 51.475c4.92 27.907 29.78 28.211 59.456 22.978z" fill="#FFAD19" opacity=".772"/>
      <path d="M99.184 23.207c10.68 10.447 7.471 27.17 1.309 33.195-8.484 8.293-17.118 12.402-46.78 16.837 8.301-16.837 31.475-46.585 45.471-50.032z" fill="#FFF" opacity=".155"/>
      <path d="M47.681 15.703c6.245-2.31 12.407-2.295 12.407-2.295S34.961 35.858 22.24 70.652c-3.259-1.034-5.98-4.495-5.98-4.495s5.443-22.942 31.421-50.454z" fill="#FFF" opacity=".542"/>
      <path d="M29.467 22.728c5.994-3.682 13.272-6.416 13.272-6.416S23.122 32.557 14.52 63.46c-1.804-2.6-2.552-6.121-2.552-6.121s6.303-22.23 17.5-34.611z" fill="#FFF" opacity=".542"/>
    </g>
  </g>
</svg>
