<svg xmlns="http://www.w3.org/2000/svg" width="844" height="954" viewBox="0 0 844 954"><path d="M562,1209a571.093,571.093,0,0,1-57.461-2.9,563.5,563.5,0,0,1-55.8-8.517c-18.107-3.706-36.228-8.365-53.859-13.848-17.432-5.422-34.8-11.781-51.635-18.9-16.673-7.053-33.2-15.016-49.126-23.666-15.809-8.588-31.4-18.059-46.336-28.15-14.854-10.035-29.411-20.92-43.265-32.352-13.816-11.4-27.243-23.606-39.91-36.273s-24.873-26.1-36.273-39.911c-11.432-13.852-22.317-28.408-32.353-43.265-10.091-14.937-19.562-30.527-28.15-46.336-8.652-15.927-16.614-32.456-23.666-49.127-7.119-16.832-13.477-34.2-18.9-51.635-5.484-17.63-10.143-35.751-13.849-53.859a563.459,563.459,0,0,1-8.516-55.8A571.091,571.091,0,0,1,0,647c0-18.84.943-37.837,2.8-56.465,1.83-18.356,4.6-36.816,8.225-54.868,3.581-17.818,8.084-35.651,13.382-53,5.242-17.167,11.389-34.282,18.27-50.87,6.816-16.429,14.517-32.737,22.891-48.47,8.307-15.608,17.473-31.018,27.243-45.8,9.718-14.7,20.258-29.125,31.327-42.864,11.047-13.71,22.871-27.053,35.144-39.658H844v878.232c-4.668,2.714-9.418,5.384-14.118,7.937-15.925,8.651-32.454,16.614-49.126,23.666-16.829,7.118-34.2,13.476-51.635,18.9-17.632,5.484-35.753,10.143-53.859,13.848a563.489,563.489,0,0,1-55.8,8.517A571.122,571.122,0,0,1,562,1209Z" transform="translate(0 -255.001)" fill="#0064d6"/></svg>