<svg xmlns="http://www.w3.org/2000/svg" width="265" height="265" viewBox="0 0 265 265"><g fill="none"><path d="M132.5,0A132.5,132.5,0,1,1,0,132.5,132.5,132.5,0,0,1,132.5,0Z" stroke="none"/><path d="M 132.5 10 C 64.95327758789063 10 10 64.95327758789063 10 132.5 C 10 200.0467224121094 64.95327758789063 255 132.5 255 C 200.0467224121094 255 255 200.0467224121094 255 132.5 C 255 64.95327758789063 200.0467224121094 10 132.5 10 M 132.5 0 C 205.677734375 0 265 59.322265625 265 132.5 C 265 205.677734375 205.677734375 265 132.5 265 C 59.322265625 265 0 205.677734375 0 132.5 C 0 59.322265625 59.322265625 0 132.5 0 Z" stroke="none" fill="#f3f3f3"/></g></svg>