<svg xmlns="http://www.w3.org/2000/svg" width="129" height="129" viewBox="0 0 129 129">
  <g id="Symbol_1_1" data-name="Symbol 1 – 1" transform="translate(-887 -278)">
    <g id="Path_5" data-name="Path 5" transform="translate(911 302)" fill="none" opacity="0.3">
      <path d="M40.5,0A40.5,40.5,0,1,1,0,40.5,40.5,40.5,0,0,1,40.5,0Z" stroke="none"/>
      <path d="M 40.5 10 C 23.6822395324707 10 10 23.6822395324707 10 40.5 C 10 57.3177604675293 23.6822395324707 71 40.5 71 C 57.3177604675293 71 71 57.3177604675293 71 40.5 C 71 23.6822395324707 57.3177604675293 10 40.5 10 M 40.5 0 C 62.86751937866211 0 81 18.13246154785156 81 40.5 C 81 62.86751937866211 62.86751937866211 81 40.5 81 C 18.13246154785156 81 0 62.86751937866211 0 40.5 C 0 18.13246154785156 18.13246154785156 0 40.5 0 Z" stroke="none" fill="#0064d6"/>
    </g>
  </g>
</svg>
