<svg xmlns="http://www.w3.org/2000/svg" width="162.44" height="55" viewBox="0 0 162.44 55">
  <g id="Group_3" data-name="Group 3" transform="translate(-106 -79)">
    <g id="Ellipse_2" data-name="Ellipse 2" transform="translate(106 79)" fill="none" stroke="#0064d6" stroke-width="13">
      <circle cx="27.5" cy="27.5" r="27.5" stroke="none"/>
      <circle cx="27.5" cy="27.5" r="21" fill="none"/>
    </g>
    <path id="Path_3" data-name="Path 3" d="M2.12-22.12v4.4h9.72L1.96-4.44V0H18.84V-4.44H8.76L18.44-17.6v-4.52ZM37.16-11.04a21.369,21.369,0,0,1-.12,2.48,10.173,10.173,0,0,1-.54,2.18,3.405,3.405,0,0,1-1.4,1.8,4.6,4.6,0,0,1-2.5.62,4.706,4.706,0,0,1-2.52-.62,3.376,3.376,0,0,1-1.42-1.8,10.173,10.173,0,0,1-.54-2.18A21.369,21.369,0,0,1,28-11.04a21.48,21.48,0,0,1,.12-2.46,10.139,10.139,0,0,1,.54-2.2,3.473,3.473,0,0,1,1.42-1.82,4.591,4.591,0,0,1,2.52-.64,4.49,4.49,0,0,1,2.5.64,3.505,3.505,0,0,1,1.4,1.82,10.14,10.14,0,0,1,.54,2.2A21.481,21.481,0,0,1,37.16-11.04Zm5.52,0q0-11.56-10.08-11.56-10.12,0-10.12,11.56Q22.48.48,32.6.48,42.68.48,42.68-11.04ZM61.4,0h5.48V-13.4q0-5.08-2.38-7.14T57.2-22.6a24.981,24.981,0,0,0-5.02.52,28.934,28.934,0,0,0-3.36.82q-.82.3-1.3.5V0h5.52V-17.6l.48-.16a13.037,13.037,0,0,1,1.4-.26,13.566,13.566,0,0,1,1.96-.14,5.714,5.714,0,0,1,3.32.84q1.2.84,1.2,3.36ZM90-9.68a18.649,18.649,0,0,0,.44-3.84,9.709,9.709,0,0,0-2.16-6.58q-2.16-2.5-6.92-2.5-5,0-7.42,3.16a13.39,13.39,0,0,0-2.42,8.36Q71.52.48,82.2.48a18.747,18.747,0,0,0,7.12-1.2l-.68-4.16-.76.24a15.245,15.245,0,0,1-2.2.48,18.22,18.22,0,0,1-2.92.24q-3.12,0-4.42-1.68a6.467,6.467,0,0,1-1.3-4.08Zm-4.8-3.6H77.08q.32-5.04,4.28-5.04A3.373,3.373,0,0,1,84.4-17.1a5.87,5.87,0,0,1,.8,3.26Z" transform="translate(178 120)" fill="#0064d6"/>
  </g>
</svg>
